<mxfile host="app.diagrams.net" modified="2022-04-19T09:05:47.151Z" agent="5.0 (Windows NT 10.0; Win64; x64) AppleWebKit/537.36 (KHTML, like Gecko) Chrome/100.0.4896.75 Safari/537.36" etag="yETQa59zlVgnfWVqvebH" version="17.4.5" type="github">
  <diagram id="C5RBs43oDa-KdzZeNtuy" name="Page-1">
    <mxGraphModel dx="1038" dy="547" grid="1" gridSize="10" guides="1" tooltips="1" connect="1" arrows="1" fold="1" page="1" pageScale="1" pageWidth="827" pageHeight="1169" math="0" shadow="0">
      <root>
        <mxCell id="WIyWlLk6GJQsqaUBKTNV-0" />
        <mxCell id="WIyWlLk6GJQsqaUBKTNV-1" parent="WIyWlLk6GJQsqaUBKTNV-0" />
        <mxCell id="ghInZBlQ-6bCwaPDMIuo-0" value="" style="rounded=0;html=1;jettySize=auto;orthogonalLoop=1;fontSize=11;endArrow=block;endFill=0;endSize=8;strokeWidth=1;shadow=0;labelBackgroundColor=none;entryX=0.5;entryY=0;entryDx=0;entryDy=0;edgeStyle=orthogonalEdgeStyle;exitX=0.5;exitY=1;exitDx=0;exitDy=0;" edge="1" parent="WIyWlLk6GJQsqaUBKTNV-1" source="ghInZBlQ-6bCwaPDMIuo-1" target="ghInZBlQ-6bCwaPDMIuo-4">
          <mxGeometry relative="1" as="geometry">
            <mxPoint x="320.0000000000001" y="100" as="sourcePoint" />
            <mxPoint x="210.0000000000001" y="160" as="targetPoint" />
            <Array as="points">
              <mxPoint x="392" y="120" />
              <mxPoint x="220" y="120" />
            </Array>
          </mxGeometry>
        </mxCell>
        <mxCell id="ghInZBlQ-6bCwaPDMIuo-1" value="Block orders of ESS" style="rounded=1;whiteSpace=wrap;html=1;fontSize=12;glass=0;strokeWidth=1;shadow=0;" vertex="1" parent="WIyWlLk6GJQsqaUBKTNV-1">
          <mxGeometry x="332" y="60" width="120" height="40" as="geometry" />
        </mxCell>
        <mxCell id="ghInZBlQ-6bCwaPDMIuo-2" value="ESS is not charging?" style="rhombus;whiteSpace=wrap;html=1;shadow=0;fontFamily=Helvetica;fontSize=12;align=center;strokeWidth=1;spacing=6;spacingTop=-4;" vertex="1" parent="WIyWlLk6GJQsqaUBKTNV-1">
          <mxGeometry x="170" y="230" width="100" height="80" as="geometry" />
        </mxCell>
        <mxCell id="ghInZBlQ-6bCwaPDMIuo-3" style="edgeStyle=orthogonalEdgeStyle;rounded=0;orthogonalLoop=1;jettySize=auto;html=1;exitX=0.5;exitY=1;exitDx=0;exitDy=0;entryX=0.5;entryY=0;entryDx=0;entryDy=0;endArrow=block;endFill=0;" edge="1" parent="WIyWlLk6GJQsqaUBKTNV-1" source="ghInZBlQ-6bCwaPDMIuo-4" target="ghInZBlQ-6bCwaPDMIuo-2">
          <mxGeometry relative="1" as="geometry" />
        </mxCell>
        <mxCell id="ghInZBlQ-6bCwaPDMIuo-4" value="Up-regulation" style="rounded=1;whiteSpace=wrap;html=1;fontSize=12;glass=0;strokeWidth=1;shadow=0;" vertex="1" parent="WIyWlLk6GJQsqaUBKTNV-1">
          <mxGeometry x="160" y="150" width="120" height="40" as="geometry" />
        </mxCell>
        <mxCell id="ghInZBlQ-6bCwaPDMIuo-5" value="Down-regulation" style="rounded=1;whiteSpace=wrap;html=1;fontSize=12;glass=0;strokeWidth=1;shadow=0;" vertex="1" parent="WIyWlLk6GJQsqaUBKTNV-1">
          <mxGeometry x="498" y="150" width="120" height="40" as="geometry" />
        </mxCell>
        <mxCell id="ghInZBlQ-6bCwaPDMIuo-6" value="" style="rounded=0;html=1;jettySize=auto;orthogonalLoop=1;fontSize=11;endArrow=block;endFill=0;endSize=8;strokeWidth=1;shadow=0;labelBackgroundColor=none;entryX=0.5;entryY=0;entryDx=0;entryDy=0;edgeStyle=orthogonalEdgeStyle;" edge="1" parent="WIyWlLk6GJQsqaUBKTNV-1" target="ghInZBlQ-6bCwaPDMIuo-5">
          <mxGeometry relative="1" as="geometry">
            <mxPoint x="414" y="100" as="sourcePoint" />
            <mxPoint x="324.0000000000001" y="160" as="targetPoint" />
            <Array as="points">
              <mxPoint x="392" y="100" />
              <mxPoint x="392" y="120" />
              <mxPoint x="558" y="120" />
            </Array>
          </mxGeometry>
        </mxCell>
        <mxCell id="ghInZBlQ-6bCwaPDMIuo-7" value="No" style="rounded=0;html=1;jettySize=auto;orthogonalLoop=1;fontSize=11;endArrow=block;endFill=0;endSize=8;strokeWidth=1;shadow=0;labelBackgroundColor=none;edgeStyle=orthogonalEdgeStyle;entryX=0.5;entryY=0;entryDx=0;entryDy=0;" edge="1" parent="WIyWlLk6GJQsqaUBKTNV-1" target="ghInZBlQ-6bCwaPDMIuo-10">
          <mxGeometry x="0.0406" y="-10" relative="1" as="geometry">
            <mxPoint as="offset" />
            <mxPoint x="558" y="310.0000000000001" as="sourcePoint" />
            <mxPoint x="638.0000000000001" y="379.9999999999999" as="targetPoint" />
            <Array as="points">
              <mxPoint x="558" y="330" />
              <mxPoint x="462" y="330" />
            </Array>
          </mxGeometry>
        </mxCell>
        <mxCell id="ghInZBlQ-6bCwaPDMIuo-8" value="ESS is not discharging?" style="rhombus;whiteSpace=wrap;html=1;shadow=0;fontFamily=Helvetica;fontSize=12;align=center;strokeWidth=1;spacing=6;spacingTop=-4;" vertex="1" parent="WIyWlLk6GJQsqaUBKTNV-1">
          <mxGeometry x="508" y="230" width="100" height="80" as="geometry" />
        </mxCell>
        <mxCell id="ghInZBlQ-6bCwaPDMIuo-9" value="" style="edgeStyle=orthogonalEdgeStyle;rounded=0;orthogonalLoop=1;jettySize=auto;html=1;endArrow=block;endFill=0;" edge="1" parent="WIyWlLk6GJQsqaUBKTNV-1" source="ghInZBlQ-6bCwaPDMIuo-10" target="ghInZBlQ-6bCwaPDMIuo-13">
          <mxGeometry relative="1" as="geometry">
            <Array as="points">
              <mxPoint x="462" y="470" />
            </Array>
          </mxGeometry>
        </mxCell>
        <mxCell id="ghInZBlQ-6bCwaPDMIuo-10" value="Calculate decreased discharging blocks" style="rounded=1;whiteSpace=wrap;html=1;fontSize=12;glass=0;strokeWidth=1;shadow=0;" vertex="1" parent="WIyWlLk6GJQsqaUBKTNV-1">
          <mxGeometry x="402" y="360" width="120" height="40" as="geometry" />
        </mxCell>
        <mxCell id="ghInZBlQ-6bCwaPDMIuo-11" style="edgeStyle=orthogonalEdgeStyle;rounded=0;orthogonalLoop=1;jettySize=auto;html=1;exitX=0.5;exitY=1;exitDx=0;exitDy=0;entryX=0.5;entryY=0;entryDx=0;entryDy=0;endArrow=block;endFill=0;" edge="1" parent="WIyWlLk6GJQsqaUBKTNV-1" target="ghInZBlQ-6bCwaPDMIuo-8">
          <mxGeometry relative="1" as="geometry">
            <mxPoint x="558" y="190" as="sourcePoint" />
          </mxGeometry>
        </mxCell>
        <mxCell id="ghInZBlQ-6bCwaPDMIuo-12" value="Yes" style="rounded=0;html=1;jettySize=auto;orthogonalLoop=1;fontSize=11;endArrow=block;endFill=0;endSize=8;strokeWidth=1;shadow=0;labelBackgroundColor=none;edgeStyle=orthogonalEdgeStyle;entryX=0.5;entryY=0;entryDx=0;entryDy=0;" edge="1" parent="WIyWlLk6GJQsqaUBKTNV-1">
          <mxGeometry x="-0.167" y="24" relative="1" as="geometry">
            <mxPoint as="offset" />
            <mxPoint x="558" y="330.03" as="sourcePoint" />
            <mxPoint x="558" y="449.9999999999999" as="targetPoint" />
          </mxGeometry>
        </mxCell>
        <mxCell id="ghInZBlQ-6bCwaPDMIuo-13" value="Calculate increased charging blocks" style="rounded=1;whiteSpace=wrap;html=1;fontSize=12;glass=0;strokeWidth=1;shadow=0;" vertex="1" parent="WIyWlLk6GJQsqaUBKTNV-1">
          <mxGeometry x="498" y="450" width="120" height="40" as="geometry" />
        </mxCell>
        <mxCell id="ghInZBlQ-6bCwaPDMIuo-14" value="No" style="rounded=0;html=1;jettySize=auto;orthogonalLoop=1;fontSize=11;endArrow=block;endFill=0;endSize=8;strokeWidth=1;shadow=0;labelBackgroundColor=none;edgeStyle=orthogonalEdgeStyle;entryX=0.5;entryY=0;entryDx=0;entryDy=0;" edge="1" parent="WIyWlLk6GJQsqaUBKTNV-1" target="ghInZBlQ-6bCwaPDMIuo-16">
          <mxGeometry x="0.0136" y="10" relative="1" as="geometry">
            <mxPoint as="offset" />
            <mxPoint x="220" y="310.0000000000001" as="sourcePoint" />
            <mxPoint x="300.0000000000001" y="379.9999999999999" as="targetPoint" />
            <Array as="points">
              <mxPoint x="220" y="330" />
              <mxPoint x="312" y="330" />
            </Array>
          </mxGeometry>
        </mxCell>
        <mxCell id="ghInZBlQ-6bCwaPDMIuo-15" value="" style="edgeStyle=orthogonalEdgeStyle;rounded=0;orthogonalLoop=1;jettySize=auto;html=1;endArrow=block;endFill=0;" edge="1" parent="WIyWlLk6GJQsqaUBKTNV-1" source="ghInZBlQ-6bCwaPDMIuo-16" target="ghInZBlQ-6bCwaPDMIuo-18">
          <mxGeometry relative="1" as="geometry">
            <Array as="points">
              <mxPoint x="312" y="470" />
            </Array>
          </mxGeometry>
        </mxCell>
        <mxCell id="ghInZBlQ-6bCwaPDMIuo-16" value="Calculate decreased charging blocks" style="rounded=1;whiteSpace=wrap;html=1;fontSize=12;glass=0;strokeWidth=1;shadow=0;" vertex="1" parent="WIyWlLk6GJQsqaUBKTNV-1">
          <mxGeometry x="252" y="360" width="120" height="40" as="geometry" />
        </mxCell>
        <mxCell id="ghInZBlQ-6bCwaPDMIuo-17" value="Yes" style="rounded=0;html=1;jettySize=auto;orthogonalLoop=1;fontSize=11;endArrow=block;endFill=0;endSize=8;strokeWidth=1;shadow=0;labelBackgroundColor=none;edgeStyle=orthogonalEdgeStyle;entryX=0.5;entryY=0;entryDx=0;entryDy=0;" edge="1" parent="WIyWlLk6GJQsqaUBKTNV-1" target="ghInZBlQ-6bCwaPDMIuo-18">
          <mxGeometry x="-0.167" y="-18" relative="1" as="geometry">
            <mxPoint as="offset" />
            <mxPoint x="220" y="330.03" as="sourcePoint" />
            <mxPoint x="140" y="380.03" as="targetPoint" />
          </mxGeometry>
        </mxCell>
        <mxCell id="ghInZBlQ-6bCwaPDMIuo-18" value="Calculate increased discharging blocks" style="rounded=1;whiteSpace=wrap;html=1;fontSize=12;glass=0;strokeWidth=1;shadow=0;" vertex="1" parent="WIyWlLk6GJQsqaUBKTNV-1">
          <mxGeometry x="160" y="450" width="120" height="40" as="geometry" />
        </mxCell>
      </root>
    </mxGraphModel>
  </diagram>
</mxfile>
